<?xml version="1.0" encoding="UTF-8"?>
<svg width="164px" height="25px" viewBox="0 0 164 25" version="1.1" xmlns="http://www.w3.org/2000/svg" xmlns:xlink="http://www.w3.org/1999/xlink">
    <title>자산 2</title>
    <g id="Page-1" stroke="none" stroke-width="1" fill="none" fill-rule="evenodd">
        <g id="LXI-사람들_01-1" transform="translate(-40.000000, -46.000000)" fill-rule="nonzero">
            <g id="자산-2" transform="translate(40.000000, 46.000000)">
                <g id="Group" transform="translate(73.095655, 2.486935)" fill="#FFFFFF">
                    <path d="M10.7114598,4.04449575 C10.5049323,1.75548326 8.50850037,0.697030119 5.62572148,0.697030119 L5.14382412,0.697030119 C2.26104523,0.697030119 0.264613286,1.76408857 0.0580858432,4.04449575 C-0.0193619477,4.96526393 -0.0193619477,6.02371707 0.0580858432,6.94448526 C0.264613286,9.23349774 2.26104523,10.3521881 5.14382412,10.3521881 L5.62572148,10.3521881 C8.50850037,10.3521881 10.5049323,9.22489243 10.7114598,6.94448526 C10.7889075,6.02371707 10.7889075,4.96526393 10.7114598,4.04449575 Z M7.6823906,6.60027285 C7.57052157,7.71896317 6.80464897,8.33854549 5.3847728,8.39878266 C3.96489663,8.33854549 3.19902403,7.71896317 3.087155,6.60027285 C3.02691783,6.049533 3.02691783,4.94805331 3.087155,4.39731346 C3.19902403,3.27862315 3.96489663,2.71927799 5.3847728,2.65904082 C6.80464897,2.71067268 7.57052157,3.27862315 7.6823906,4.39731346 C7.74262777,4.94805331 7.74262777,6.049533 7.6823906,6.60027285 Z" id="Shape"></path>
                    <path d="M16.9847308,17.1159618 L6.57230559,17.1159618 L6.57230559,13.1317032 C6.57230559,12.8219121 6.40019939,12.6412005 6.10761885,12.6412005 L3.88744884,12.6412005 C3.58626299,12.6412005 3.42276209,12.8219121 3.42276209,13.1317032 C3.42276209,13.1317032 3.42276209,17.5118061 3.42276209,17.5548326 C3.49160458,18.5960751 4.33492497,19.4393955 5.37616749,19.508238 C5.41919404,19.508238 16.9933361,19.508238 16.9933361,19.508238 C17.1482317,19.508238 17.2687061,19.3877637 17.2687061,19.2328681 L17.2687061,17.3913317 C17.2687061,17.2364361 17.1396264,17.1159618 16.9933361,17.1159618 L16.9847308,17.1159618 Z" id="Path"></path>
                    <path d="M16.3135166,13.1747298 C16.3135166,13.4931262 16.1414104,13.6652324 15.8488299,13.6652324 L13.7921608,13.6652324 C13.4909749,13.6652324 13.3188687,13.4845209 13.3188687,13.1747298 L13.3188687,0.490502676 C13.3188687,0.180711512 13.4909749,1.14645761e-15 13.7921608,1.14645761e-15 L15.8488299,1.14645761e-15 C16.1500157,1.14645761e-15 16.3135166,0.180711512 16.3135166,0.490502676 L16.3135166,13.1747298 Z" id="Path"></path>
                    <g transform="translate(19.153269, 0.000000)" id="Path">
                        <path d="M71.4757057,17.3655158 L61.3300451,17.3655158 L61.3300451,16.2124042 L70.2709623,16.2124042 C70.8303075,16.2124042 71.0970721,15.928429 71.0970721,15.3518732 L71.0970721,11.7720642 C71.0970721,11.1955084 70.8217022,10.9115332 70.2709623,10.9115332 L58.8689264,10.9115332 C58.5591353,10.9115332 58.3870291,11.0836394 58.3870291,11.37622 L58.3870291,12.5379368 C58.3870291,12.8305174 58.5591353,13.0026236 58.8689264,13.0026236 L67.9647392,13.0026236 L67.9647392,14.1299192 L59.0324273,14.1299192 C58.4730822,14.1299192 58.2063176,14.3794732 58.2063176,14.956029 L58.2063176,17.4429636 C58.2063176,18.5788645 59.1270857,19.4910274 60.2543814,19.4910274 L71.4757057,19.4910274 C71.6306013,19.4910274 71.7510757,19.370553 71.7510757,19.2156575 L71.7510757,17.6150698 C71.7510757,17.4601742 71.6306013,17.3396999 71.4757057,17.3396999 L71.4757057,17.3655158 Z"></path>
                        <path d="M10.8599014,12.0818554 L2.93441075,12.0818554 L2.93441075,8.8548641 L8.16643929,8.8548641 C8.46762514,8.8548641 8.63973135,8.69136321 8.63973135,8.39878266 L8.63973135,7.09938084 C8.63973135,6.80680029 8.46762514,6.63469409 8.16643929,6.63469409 L2.93441075,6.63469409 L2.93441075,3.53678245 L9.3625774,3.53678245 C9.66376325,3.53678245 9.83586945,3.37328156 9.83586945,3.08070102 L9.83586945,1.78129919 C9.83586945,1.48871865 9.66376325,1.31661245 9.3625774,1.31661245 L0.81750446,1.31661245 C0.266764613,1.31661245 1.22288812e-14,1.60058768 1.22288812e-14,2.16853815 L1.22288812e-14,12.4432784 C1.22288812e-14,13.4673103 0.82610977,14.2934201 1.85014167,14.2934201 L10.8599014,14.2934201 C11.1610872,14.2934201 11.3331934,14.1299192 11.3331934,13.8373387 L11.3331934,12.5379368 C11.3331934,12.2453563 11.1610872,12.0732501 10.8599014,12.0732501 L10.8599014,12.0818554 Z"></path>
                        <path d="M15.2486095,7.64305073e-16 L13.2349669,7.64305073e-16 C12.9509917,7.64305073e-16 12.7788855,0.172106202 12.7788855,0.473292056 L12.7788855,6.6432994 L10.2919509,6.6432994 C9.99076503,6.6432994 9.81865883,6.8154056 9.81865883,7.10798615 L9.81865883,8.40738797 C9.81865883,8.69996852 9.99076503,8.86346941 10.2919509,8.86346941 L12.7788855,8.86346941 L12.7788855,19.034946 C12.7788855,19.3361318 12.9423864,19.508238 13.2349669,19.508238 L15.2486095,19.508238 C15.5325847,19.508238 15.6960856,19.3361318 15.6960856,19.00913 L15.6960856,0.473292056 C15.6960856,0.197922132 15.5325847,7.64305073e-16 15.2486095,7.64305073e-16 Z"></path>
                        <path d="M52.8193934,7.64305073e-16 L50.8057509,7.64305073e-16 C50.5217756,7.64305073e-16 50.3496694,0.172106202 50.3496694,0.473292056 L50.3496694,3.829363 L47.1312835,3.829363 C46.8300976,3.829363 46.6579914,4.0014692 46.6579914,4.29404974 L46.6579914,5.59345157 C46.6579914,5.88603211 46.8300976,6.049533 47.1312835,6.049533 L50.3496694,6.049533 L50.3496694,7.69314723 L47.1312835,7.69314723 C46.8300976,7.69314723 46.6579914,7.86525344 46.6579914,8.15783398 L46.6579914,9.45723581 C46.6579914,9.74981635 46.8300976,9.91331724 47.1312835,9.91331724 L50.3496694,9.91331724 L50.3496694,19.034946 C50.3496694,19.3361318 50.5131703,19.508238 50.8057509,19.508238 L52.8193934,19.508238 C53.1033687,19.508238 53.2668696,19.3361318 53.2668696,19.00913 L53.2668696,0.473292056 C53.2668696,0.197922132 53.1033687,7.64305073e-16 52.8193934,7.64305073e-16 Z"></path>
                        <path d="M26.7969357,11.9958023 L21.478854,11.9958023 L21.478854,1.80711512 C21.478854,1.49732396 21.255116,1.32521776 20.9625354,1.32521776 L19.0005247,1.32521776 C18.7079442,1.32521776 18.5444433,1.49732396 18.5444433,1.80711512 L18.5444433,12.3572253 C18.5444433,13.3812572 19.370553,14.207367 20.394585,14.207367 L26.7969357,14.207367 C27.0981215,14.207367 27.2702277,14.0438661 27.2702277,13.7512855 L27.2702277,12.4518837 C27.2702277,12.1593032 27.0981215,11.987197 26.7969357,11.987197 L26.7969357,11.9958023 Z"></path>
                        <path d="M34.3523979,7.64305073e-16 L32.4764403,7.64305073e-16 C32.1924651,7.64305073e-16 32.0289642,0.172106202 32.0289642,0.473292056 L32.0289642,6.6432994 L30.8242208,6.6432994 L30.8242208,0.765872599 C30.8242208,0.464686746 30.6607199,0.292580544 30.3767447,0.292580544 L28.5007871,0.292580544 C28.2168118,0.292580544 28.0533109,0.464686746 28.0533109,0.765872599 L28.0533109,18.8714451 C28.0533109,19.1726309 28.2168118,19.3447371 28.5007871,19.3447371 L30.3767447,19.3447371 C30.6607199,19.3447371 30.8242208,19.1726309 30.8242208,18.8714451 L30.8242208,8.8548641 L32.0289642,8.8548641 L32.0289642,19.0263406 C32.0289642,19.3275265 32.1924651,19.4996327 32.4764403,19.4996327 L34.3523979,19.4996327 C34.6363732,19.4996327 34.7998741,19.3275265 34.7998741,19.0263406 L34.7998741,0.473292056 C34.7998741,0.172106202 34.6363732,7.64305073e-16 34.3523979,7.64305073e-16 Z"></path>
                        <path d="M47.7250498,12.4346731 C44.1366355,10.4296358 43.6719488,7.21985518 43.6719488,4.63826215 L43.6719488,1.89316822 C43.6719488,1.59198237 43.5084479,1.41987617 43.2244727,1.41987617 L41.1764089,1.41987617 C40.8924336,1.41987617 40.7289327,1.59198237 40.7289327,1.89316822 L40.7289327,4.63826215 C40.7289327,7.21124987 40.2728513,10.4210305 36.684437,12.4260678 C36.4176724,12.5637528 36.3402246,12.8219121 36.4865148,13.1230979 L37.04586,14.3106307 C37.2523874,14.8097387 37.6912583,14.5343688 37.8547592,14.4655263 C39.7823486,13.5533634 41.3915416,12.1765138 42.2090461,10.6619792 C43.0093399,12.1765138 44.4808479,13.458705 46.425648,14.3708679 C46.5117011,14.4138944 47.17431,14.7150803 47.4410746,14.1815511 L47.9401826,13.1230979 C48.0864729,12.8219121 48.0090251,12.5637528 47.7508658,12.4260678 L47.7250498,12.4346731 Z"></path>
                        <path d="M66.4588099,8.48483576 L66.4588099,7.18543394 C66.4588099,6.89285339 66.2867037,6.72074719 65.9855179,6.72074719 L58.6710043,6.72074719 L58.6710043,1.32521776 C58.6710043,1.01542659 58.4472662,0.84332039 58.1546857,0.84332039 L56.192675,0.84332039 C55.9000944,0.84332039 55.7365936,1.01542659 55.7365936,1.32521776 L55.7365936,7.09938084 C55.7365936,8.12341274 56.5713086,8.94952251 57.5953405,8.94952251 L65.9941232,8.94952251 C66.2953091,8.94952251 66.4674153,8.78602162 66.4674153,8.49344107 L66.4588099,8.48483576 Z"></path>
                        <path d="M63.9890859,4.939448 L68.2142932,4.939448 L68.2142932,9.66376325 C68.2142932,9.97355441 68.3777941,10.1456606 68.67898,10.1456606 L70.7012278,10.1456606 C70.9938084,10.1456606 71.1573093,9.9649491 71.1573093,9.66376325 L71.1573093,0.481897366 C71.1573093,0.172106202 70.9852031,1.14645761e-15 70.7012278,1.14645761e-15 L68.67898,1.14645761e-15 C68.3863994,1.14645761e-15 68.2142932,0.180711512 68.2142932,0.481897366 L68.2142932,2.71927799 L63.9890859,2.71927799 C63.6879001,2.71927799 63.5157939,2.8913842 63.5157939,3.18396474 L63.5157939,4.48336657 C63.5157939,4.77594711 63.6879001,4.939448 63.9890859,4.939448 Z"></path>
                    </g>
                </g>
                <g id="Group">
                    <g transform="translate(35.367825, 3.166754)" fill="#FFFFFF" id="Path">
                        <g transform="translate(15.327713, 0.000000)">
                            <path d="M5.50574313,0.78308322 C5.1443201,0.352817714 4.40426343,0.00860531011 3.84491828,0.00860531011 L0.230688033,0.00860531011 C0.0413712103,0.00860531011 -0.0704978211,0.258159303 0.0499765204,0.395844265 L6.53838034,8.13201805 L9.10276275,5.07713296 C9.10276275,5.07713296 7.21819984,2.82254171 5.49713782,0.78308322 L5.50574313,0.78308322 Z"></path>
                            <path d="M5.49713782,17.2794627 L9.86003004,12.0818554 L14.2229223,17.2794627 C14.5843453,17.7097282 15.324402,18.0539406 15.8837471,18.0539406 L19.4979774,18.0539406 C19.6872942,18.0539406 19.7905579,17.8043866 19.6786889,17.6667016 L12.4330178,9.01836499 L19.6786889,0.387238955 C19.7991632,0.249553993 19.6872942,-7.64305073e-16 19.4979774,-7.64305073e-16 L15.8837471,-7.64305073e-16 C15.324402,-7.64305073e-16 14.57574,0.344212404 14.2229223,0.77447791 C11.7531983,3.71749397 7.47635914,8.81183755 0.0499765204,17.6580963 C-0.061892511,17.7957813 0.0499765204,18.0453353 0.230688033,18.0453353 L3.84491828,18.0453353 C4.40426343,18.0453353 5.1443201,17.7011229 5.50574313,17.2708574 L5.49713782,17.2794627 Z"></path>
                        </g>
                        <path d="M4.87921083,0.610977018 C4.87921083,0.275369923 4.60384091,0 4.26823381,0 L0.610977018,0 C0.275369923,0 6.11444058e-15,0.275369923 6.11444058e-15,0.610977018 L6.11444058e-15,15.6100325 C6.11444058e-15,16.9610662 1.09287438,18.0539406 2.44390807,18.0539406 L12.5379368,18.0539406 C13.2435723,18.0539406 13.7771015,17.787176 14.207367,17.2794627 L16.5049848,14.5429741 C16.6254591,14.4052891 16.5135901,14.1557351 16.3242733,14.1557351 L5.49879316,14.1557351 C5.16318606,14.1557351 4.88781614,13.8803652 4.88781614,13.5447581 L4.88781614,0.610977018 L4.87921083,0.610977018 Z"></path>
                    </g>
                    <g id="Path">
                        <path d="M25.8159303,17.1848043 L19.5426593,12.6239899 C19.0435513,12.2625669 18.5616539,12.1851191 18.0195194,12.710043 L11.7032217,18.8026026 C11.4364571,19.0607619 10.988981,18.9574982 10.988981,18.5186273 L10.988981,0 L4.88781614,0 L4.88781614,16.0316927 C4.88781614,16.6684857 5.25784447,17.3138839 5.7053206,17.6408857 L10.1628712,20.8850876 C10.7652429,21.3239584 11.6774058,21.3583797 12.1851191,20.8764823 L16.6082485,16.6168538 C16.8061706,16.427537 17.1589884,16.4017211 17.3827264,16.565222 L23.3289957,20.8936929 C23.9571833,21.3497744 24.8693462,21.3497744 25.3512436,20.8850876 L28.0533109,18.286284 L28.0533109,15.7391122 L26.5990135,17.1417777 C26.4010914,17.3396999 26.0482737,17.3569105 25.8245356,17.1934096 L25.8159303,17.1848043 Z" fill="#FFFFFF"></path>
                        <g fill="#AA2D29">
                            <path d="M25.6180082,0 L10.988981,0 L10.988981,18.5186273 C10.988981,18.9574982 11.4364571,19.0521566 11.7032217,18.8026026 L18.0195194,12.710043 C18.5616539,12.1851191 19.0435513,12.2625669 19.5426593,12.6239899 L25.8159303,17.1848043 C26.0482737,17.3483052 26.3924861,17.3224892 26.5904082,17.1331724 L28.0447056,15.7305069 L28.0447056,2.43530276 C28.0447056,1.08426907 26.9518313,0 25.6094029,0 L25.6180082,0 Z"></path>
                            <path d="M23.3289957,20.8764823 L17.3827264,16.5480113 C17.1589884,16.3845104 16.8147759,16.4103264 16.6082485,16.5996432 L12.1851191,20.8592717 C11.6774058,21.3497744 10.7652429,21.3067478 10.1628712,20.867877 L5.7053206,17.6236751 C5.25784447,17.2966733 4.88781614,16.6512751 4.88781614,16.0144821 L4.88781614,0 L2.44390807,0 C1.09287438,0 0,1.09287438 0,2.43530276 L0,21.9521461 C0,23.3031798 1.09287438,24.3960542 2.44390807,24.3960542 L25.6180082,24.3960542 C26.9690419,24.3960542 28.0533109,23.3031798 28.0533109,21.9521461 L28.0533109,18.2690734 L25.3512436,20.867877 C24.8693462,21.3325638 23.9571833,21.3325638 23.3289957,20.8764823 Z"></path>
                        </g>
                    </g>
                </g>
            </g>
        </g>
    </g>
</svg>