<svg width="32" height="21" viewBox="0 0 32 21" xmlns="http://www.w3.org/2000/svg">
    <g fill="#CBCBCB" fill-rule="nonzero">
        <circle cx="16" cy="10.346" r="4.926"/>
        <path d="M31.51 8.98C27.721 4.406 21.99 0 16 0 10.01 0 4.275 4.408.491 8.98a2.142 2.142 0 0 0 0 2.73c.951 1.15 2.946 3.37 5.61 5.308 6.71 4.885 13.074 4.895 19.798 0 2.664-1.939 4.659-4.158 5.61-5.308a2.143 2.143 0 0 0 0-2.73zM16 3.45a6.905 6.905 0 0 1 6.897 6.897A6.905 6.905 0 0 1 16 17.243a6.905 6.905 0 0 1-6.897-6.897A6.905 6.905 0 0 1 16 3.449z"/>
    </g>
</svg>
